<svg xmlns="http://www.w3.org/2000/svg" viewBox="15 12 70 70">
  <style>
    .mark { fill: #f43f5e; }
    @media (prefers-color-scheme: dark) {
      .mark { fill: #fb7185; }
    }
  </style>
  <mask id="spokes">
    <rect width="100" height="100" fill="white"/>
    <g stroke="black" stroke-width="3" stroke-linecap="round">
      <line x1="50" y1="50" x2="50" y2="32"/>
      <line x1="50" y1="50" x2="67.12" y2="44.44"/>
      <line x1="50" y1="50" x2="60.58" y2="64.56"/>
      <line x1="50" y1="50" x2="39.42" y2="64.56"/>
      <line x1="50" y1="50" x2="32.88" y2="44.44"/>
    </g>
    <g fill="black">
      <circle cx="50" cy="32" r="3.4"/>
      <circle cx="67.12" cy="44.44" r="3.4"/>
      <circle cx="60.58" cy="64.56" r="3.4"/>
      <circle cx="39.42" cy="64.56" r="3.4"/>
      <circle cx="32.88" cy="44.44" r="3.4"/>
      <circle cx="50" cy="50" r="2.6"/>
    </g>
  </mask>
  <g class="mark" mask="url(#spokes)">
    <path d="M50 50 C 36 46, 31 30, 40 20 C 45 14, 55 14, 60 20 C 69 30, 64 46, 50 50 Z" transform="rotate(0 50 50)"/>
    <path d="M50 50 C 36 46, 31 30, 40 20 C 45 14, 55 14, 60 20 C 69 30, 64 46, 50 50 Z" transform="rotate(72 50 50)"/>
    <path d="M50 50 C 36 46, 31 30, 40 20 C 45 14, 55 14, 60 20 C 69 30, 64 46, 50 50 Z" transform="rotate(144 50 50)"/>
    <path d="M50 50 C 36 46, 31 30, 40 20 C 45 14, 55 14, 60 20 C 69 30, 64 46, 50 50 Z" transform="rotate(216 50 50)"/>
    <path d="M50 50 C 36 46, 31 30, 40 20 C 45 14, 55 14, 60 20 C 69 30, 64 46, 50 50 Z" transform="rotate(288 50 50)"/>
  </g>
</svg>
